<svg width="165" height="37" viewBox="0 0 165 37" fill="none" xmlns="http://www.w3.org/2000/svg">
<path d="M52.3133 22.053C53.5933 22.053 54.7293 21.637 55.7213 20.805L57.6413 23.733C56.9213 24.293 56.0733 24.733 55.0973 25.053C54.1373 25.357 53.2013 25.509 52.2893 25.509C49.7453 25.509 47.5693 24.645 45.7613 22.917C43.9533 21.189 43.0493 19.109 43.0493 16.677C43.0493 14.245 43.9533 12.165 45.7613 10.437C47.5693 8.709 49.7453 7.845 52.2893 7.845C53.2013 7.845 54.1373 8.005 55.0973 8.325C56.0733 8.629 56.9213 9.061 57.6413 9.621L55.7213 12.549C54.7293 11.717 53.5933 11.301 52.3133 11.301C50.8253 11.301 49.5453 11.829 48.4733 12.885C47.4173 13.925 46.8893 15.189 46.8893 16.677C46.8893 18.165 47.4173 19.437 48.4733 20.493C49.5453 21.533 50.8253 22.053 52.3133 22.053ZM64.8997 22.149C66.0358 22.149 66.9958 21.781 67.7798 21.045L69.7478 23.613C68.4358 24.877 66.8678 25.509 65.0438 25.509C63.0918 25.509 61.5318 24.925 60.3638 23.757C59.1958 22.589 58.6118 21.125 58.6118 19.365C58.6118 17.605 59.1958 16.141 60.3638 14.973C61.5318 13.805 63.0918 13.221 65.0438 13.221C65.5238 13.221 66.0038 13.285 66.4838 13.413C66.9798 13.541 67.4998 13.765 68.0438 14.085C68.6038 14.389 69.0998 14.861 69.5318 15.501C69.9798 16.141 70.3078 16.917 70.5157 17.829L63.6998 21.909C63.9718 22.069 64.3718 22.149 64.8997 22.149ZM65.0438 16.581C64.2118 16.581 63.5158 16.869 62.9558 17.445C62.3958 18.005 62.1798 18.717 62.3078 19.581L66.2918 17.205C66.0358 16.789 65.6198 16.581 65.0438 16.581ZM75.8994 13.605V15.741C76.2834 14.925 76.8034 14.325 77.4594 13.941C78.1314 13.541 79.0194 13.301 80.1234 13.221V17.445C79.4354 17.253 78.7314 17.253 78.0114 17.445C77.4194 17.605 76.9154 17.989 76.4994 18.597C76.0994 19.205 75.8994 19.965 75.8994 20.877V25.125H72.0594V13.605H75.8994ZM83.7583 25.125V17.061H81.8383V13.605H83.7583V10.149L87.5983 8.997V13.605H90.6703V17.061H87.5983V25.125H83.7583ZM98.3507 13.221C100.175 13.221 101.719 13.821 102.983 15.021C104.247 16.205 104.879 17.653 104.879 19.365C104.879 21.077 104.247 22.533 102.983 23.733C101.735 24.917 100.191 25.509 98.3507 25.509C96.4627 25.509 94.9027 24.917 93.6707 23.733C92.4387 22.549 91.8227 21.093 91.8227 19.365C91.8227 17.621 92.4307 16.165 93.6467 14.997C94.8627 13.813 96.4307 13.221 98.3507 13.221ZM96.4547 21.261C96.9827 21.789 97.6147 22.053 98.3507 22.053C99.0867 22.053 99.7187 21.789 100.247 21.261C100.775 20.733 101.039 20.101 101.039 19.365C101.039 18.629 100.775 17.997 100.247 17.469C99.7187 16.941 99.0867 16.677 98.3507 16.677C97.6147 16.677 96.9827 16.941 96.4547 17.469C95.9267 17.997 95.6627 18.629 95.6627 19.365C95.6627 20.101 95.9267 20.733 96.4547 21.261ZM110.657 13.605V14.757C111.521 13.733 112.665 13.221 114.089 13.221C115.721 13.221 117.089 13.821 118.193 15.021C119.313 16.205 119.873 17.653 119.873 19.365C119.873 21.077 119.313 22.533 118.193 23.733C117.089 24.917 115.721 25.509 114.089 25.509C112.665 25.509 111.521 24.997 110.657 23.973V31.269H106.817V13.605H110.657ZM111.449 21.261C111.977 21.789 112.609 22.053 113.345 22.053C114.081 22.053 114.713 21.789 115.241 21.261C115.769 20.733 116.033 20.101 116.033 19.365C116.033 18.629 115.769 17.997 115.241 17.469C114.713 16.941 114.081 16.677 113.345 16.677C112.609 16.677 111.977 16.941 111.449 17.469C110.921 17.997 110.657 18.629 110.657 19.365C110.657 20.101 110.921 20.733 111.449 21.261ZM126.205 25.509C124.925 25.509 123.837 25.037 122.941 24.093C122.045 23.149 121.597 21.829 121.597 20.133V13.605H125.437V19.749C125.437 21.285 126.077 22.053 127.357 22.053C127.821 22.053 128.253 21.829 128.653 21.381C129.069 20.933 129.277 20.261 129.277 19.365V13.605H133.117V25.125H129.277V23.973C128.605 24.997 127.581 25.509 126.205 25.509ZM140.845 17.517C144.013 18.045 145.597 19.365 145.597 21.477C145.597 22.645 145.133 23.613 144.205 24.381C143.293 25.133 141.981 25.509 140.269 25.509C139.117 25.509 138.085 25.317 137.173 24.933C136.277 24.533 135.629 24.133 135.229 23.733L136.765 20.853C137.757 21.653 138.741 22.101 139.717 22.197C141.077 22.357 141.757 22.173 141.757 21.645C141.757 21.405 141.653 21.245 141.445 21.165C141.237 21.069 140.837 20.965 140.245 20.853C140.213 20.853 140.189 20.853 140.173 20.853C140.157 20.837 140.133 20.829 140.101 20.829C140.069 20.813 140.037 20.805 140.005 20.805C139.093 20.629 138.341 20.397 137.749 20.109C137.157 19.805 136.725 19.469 136.453 19.101C136.197 18.717 136.021 18.365 135.925 18.045C135.845 17.725 135.805 17.365 135.805 16.965C135.805 15.925 136.237 15.045 137.101 14.325C137.965 13.589 139.157 13.221 140.677 13.221C141.093 13.237 141.533 13.285 141.997 13.365C143.021 13.589 143.909 13.941 144.661 14.421L143.197 17.277C142.493 16.765 141.741 16.477 140.941 16.413C140.077 16.333 139.645 16.477 139.645 16.845C139.645 17.037 139.725 17.181 139.885 17.277C140.045 17.357 140.365 17.437 140.845 17.517Z" fill="#2C353D"/>
<path d="M151.119 24.909C150.719 25.309 150.223 25.509 149.631 25.509C149.039 25.509 148.535 25.309 148.119 24.909C147.719 24.493 147.519 23.989 147.519 23.397C147.519 22.805 147.719 22.309 148.119 21.909C148.535 21.493 149.039 21.285 149.631 21.285C150.223 21.285 150.719 21.493 151.119 21.909C151.535 22.309 151.743 22.805 151.743 23.397C151.743 23.989 151.535 24.493 151.119 24.909Z" fill="#FF6E30"/>
<path d="M18.3481 36.6963C28.4815 36.6963 36.6963 28.4815 36.6963 18.3481C36.6963 8.21474 28.4815 0 18.3481 0C8.21474 0 0 8.21474 0 18.3481C0 28.4815 8.21474 36.6963 18.3481 36.6963Z" fill="#FF6E30"/>
<path d="M18.3489 31.8022C25.78 31.8022 31.8042 25.7781 31.8042 18.3469C31.8042 10.9157 25.78 4.8916 18.3489 4.8916C10.9177 4.8916 4.89355 10.9157 4.89355 18.3469C4.89355 25.7781 10.9177 31.8022 18.3489 31.8022Z" fill="white"/>
<path d="M9.87662 22.5393C9.60888 22.5381 9.42225 22.2569 9.31443 22.0896C8.89764 21.4424 8.95194 20.6966 8.97682 20.4031C9.02355 19.8441 9.20346 19.3044 9.50151 18.8291C9.86319 18.2717 10.3117 17.9992 10.9631 17.5923C11.359 17.3496 11.7724 17.1366 12.1999 16.9552C13.2776 16.5182 24.039 16.7306 24.4548 17.2176C25.169 18.0539 25.366 19.5473 25.1294 20.7779C24.9427 21.7489 24.4211 22.6489 24.2674 22.9141C24.1773 23.0696 24.1932 23.0299 23.1431 24.5631C22.435 25.597 22.3211 25.7711 22.2062 25.9497C21.7887 26.6001 21.7699 26.678 21.3817 27.2614C20.9678 27.8835 20.9157 27.9053 20.7071 28.2733C20.4253 28.7705 20.2667 29.0505 20.145 29.4725C19.9831 30.035 20.0321 30.3469 19.7702 30.5221C19.5782 30.6504 19.3487 30.6185 19.208 30.597C18.5744 30.5002 18.1697 29.9365 17.634 29.1732C17.3136 28.7165 17.1258 28.4489 16.9594 28.0114C16.7535 27.4742 16.6641 26.8993 16.6971 26.325C16.7411 25.8041 16.8808 25.2959 17.1093 24.8258C17.3904 24.2351 17.7862 23.7983 18.5709 22.952C18.9992 22.4896 18.9246 22.6037 19.8462 21.6426C19.9523 21.532 20.5084 20.9493 21.1568 20.1412C21.68 19.4893 21.7081 19.3824 21.6815 19.3542C21.6473 19.3175 21.5022 19.3878 20.7821 19.8789C20.032 20.3904 19.5079 20.7783 19.5079 20.7783C19.0195 21.1399 18.6431 21.4184 18.1212 21.8278C17.2764 22.4903 16.8539 22.8216 16.6974 22.9896C16.4625 23.2414 15.6836 24.1237 15.3857 25.3507C15.2973 25.7207 15.2347 26.0963 15.1983 26.475C15.1466 27.1019 15.1207 27.4154 15.1233 27.4494C15.1367 27.6214 15.1607 27.741 15.0859 27.8241C14.9331 27.9939 14.5142 27.8498 14.3363 27.7867C13.4454 27.4705 12.8677 26.7925 12.6498 26.5125C12.2808 26.0289 12.0015 25.4831 11.8253 24.9009C11.7106 24.5273 11.5075 23.8661 11.6005 23.0646C11.7759 21.5532 12.8834 20.5874 13.137 20.3662C13.51 20.041 14.1352 19.6872 15.3857 18.9796C15.9821 18.642 16.4578 18.3934 16.4352 18.3425C16.4101 18.2865 15.8205 18.5571 14.7862 18.8297C13.9964 19.0378 13.9354 18.9867 13.3995 19.1673C12.9877 19.3058 12.5121 19.4696 11.9757 19.8418C11.3746 20.2587 11.0363 20.7017 10.7764 21.0411C10.5607 21.3233 10.4518 21.4687 10.4017 21.6782C10.3315 21.9718 10.4079 22.1649 10.2517 22.3528C10.2048 22.4073 10.1474 22.4519 10.083 22.484C10.0186 22.516 9.94842 22.5348 9.87662 22.5393Z" fill="#2C353D"/>
<path d="M18.3131 6.12462C17.616 6.13532 16.9232 6.23609 16.2518 6.42443C15.6352 6.59827 15.0433 6.85013 14.4904 7.17391C13.8194 7.57537 13.3992 7.98123 12.9539 8.41073C12.3248 9.0179 11.917 9.54435 11.4923 10.0971C10.8915 10.8791 10.4073 11.6242 10.2555 11.8586C9.65326 12.789 9.6559 12.9069 9.31859 13.2452C9.15639 13.408 8.93453 13.6025 8.75648 13.9572C8.62294 14.1722 8.55532 14.4216 8.56197 14.6747C8.56862 14.9277 8.64926 15.1732 8.79391 15.381C8.91823 15.5896 9.1641 15.9305 9.69341 16.2805C10.2227 16.6305 10.6961 16.7656 11.3798 16.955C11.7616 17.0652 12.1495 17.1528 12.5416 17.2174C15.549 17.7139 21.9506 17.5483 24.7966 17.0675C25.3901 16.97 25.9613 16.7669 26.4831 16.4678C26.813 16.2712 27.1155 16.0319 27.3826 15.7559C27.6157 15.5162 27.7977 15.3249 27.9072 15.0064C27.954 14.8703 28.0576 14.5556 27.9447 14.2193C27.8865 14.0653 27.7972 13.925 27.6824 13.8071C27.5636 13.6648 28.4407 14.7054 27.0078 12.8701C25.9523 11.5183 25.6401 11.1633 25.0965 10.4342C24.6316 9.81032 24.4496 9.51983 23.8222 8.71024C23.3939 8.15737 23.1903 7.92076 22.8853 7.66073C22.4863 7.32936 22.0452 7.05213 21.5736 6.83624C20.5682 6.3166 19.4436 6.07106 18.3131 6.12433V6.12462Z" fill="#2C353D"/>
<path d="M16.8544 10.7816C15.8449 10.1945 15.6361 10.0363 15.3054 9.90715C14.8955 9.73476 14.4472 9.6744 14.0063 9.73225C13.3232 9.835 12.8789 10.2379 12.5825 10.5068C12.0368 11.0012 11.7853 11.5319 11.6081 11.9059C11.4217 12.2947 11.2873 12.7063 11.2083 13.1302C11.1431 13.5096 11.1263 13.8958 11.1583 14.2795C11.1819 14.7481 11.247 15.2136 11.353 15.6707C11.5154 16.3078 11.6906 16.9194 11.8955 17.0893C12.6178 17.6882 23.2442 17.6797 24.3062 17.1426C24.5647 17.0117 24.9433 15.8558 24.9433 15.8558C25.0075 15.5759 25.0534 15.2922 25.0807 15.0063C25.1003 14.8321 25.1087 14.6569 25.1057 14.4816C25.099 14.2896 25.0788 14.0983 25.0452 13.9092C25.0099 13.6718 24.9614 13.4366 24.9 13.2046C24.81 12.8815 24.6967 12.5653 24.561 12.2586C24.3809 11.8243 24.2778 11.5756 24.0753 11.256C23.9356 11.0343 23.7767 10.8253 23.6006 10.6314C23.3692 10.3788 23.0964 10.0809 22.6512 9.8819C22.3471 9.73464 22.0111 9.66591 21.6736 9.68198C21.3561 9.70231 21.1379 9.80381 20.7024 10.0068C20.3074 10.1907 20.3443 10.2216 19.6529 10.5815C19.6529 10.5815 19.305 10.7625 18.8284 10.9562C18.6761 11.0234 18.5169 11.0737 18.3537 11.1061C18.1726 11.1407 17.9875 11.1492 17.804 11.1311C17.5963 11.1041 17.394 11.0451 17.2043 10.9562C17.084 10.9057 16.9671 10.8474 16.8544 10.7816Z" fill="white"/>
<path d="M15.1396 13.2325C15.1995 12.9789 15.4394 12.7578 15.4395 12.7578C15.3787 12.6994 15.3124 12.6473 15.2413 12.602C15.1391 12.5555 15.0254 12.5402 14.9145 12.558C14.7424 12.5679 14.5772 12.6288 14.4398 12.7329C14.2284 12.8948 14.0785 13.1239 14.015 13.3825C13.9377 13.6519 13.9377 13.9376 14.015 14.207C14.0828 14.4464 14.2022 14.6682 14.3648 14.8566C14.524 15.0681 14.7401 15.2297 14.988 15.3227C15.2358 15.4156 15.505 15.4359 15.7639 15.3813C15.9648 15.345 16.1586 15.2776 16.3386 15.1814C16.6241 15.046 16.6714 14.9655 16.6884 14.9319C16.7471 14.815 16.7235 14.697 16.6884 14.5321C16.6523 14.3353 16.5757 14.1481 16.4635 13.9824C16.3733 13.8532 16.3333 13.7832 16.3333 13.7832C16.2456 13.8639 16.1463 13.9311 16.0388 13.9824C15.9006 14.0413 15.7465 14.0517 15.6016 14.0118L15.589 14.0077C15.4565 13.9621 15.3425 13.8745 15.2643 13.7582C15.2393 13.7218 15.079 13.4897 15.1396 13.2325Z" fill="#2C353D"/>
<path d="M21.3689 13.2325C21.3091 12.9789 21.0691 12.7578 21.0691 12.7578C21.1298 12.6995 21.196 12.6473 21.2669 12.602C21.3692 12.5555 21.4829 12.5402 21.5938 12.558C21.7659 12.568 21.9311 12.6288 22.0685 12.7329C22.2799 12.8948 22.4298 13.1239 22.4932 13.3825C22.5706 13.6519 22.5706 13.9376 22.4932 14.207C22.4255 14.4465 22.3061 14.6682 22.1435 14.8566C21.9843 15.0681 21.7681 15.2297 21.5203 15.3227C21.2725 15.4156 21.0033 15.4359 20.7443 15.3813C20.5435 15.3451 20.3496 15.2776 20.1697 15.1814C19.8841 15.046 19.8369 14.9655 19.8199 14.9319C19.7612 14.815 19.7848 14.697 19.8199 14.5321C19.856 14.3353 19.9326 14.1481 20.0448 13.9824C20.1349 13.8532 20.1749 13.7832 20.1749 13.7832C20.2627 13.8639 20.362 13.931 20.4695 13.9824C20.6077 14.0413 20.7618 14.0517 20.9066 14.0118C20.9121 14.0101 20.9163 14.0087 20.9192 14.0077C21.0517 13.9621 21.1658 13.8745 21.244 13.7582C21.2691 13.7218 21.4295 13.4897 21.3689 13.2325Z" fill="#2C353D"/>
</svg>
