<?xml version="1.0" encoding="UTF-8"?>
<svg width="108px" height="23px" viewBox="0 0 108 23" version="1.1" xmlns="http://www.w3.org/2000/svg" xmlns:xlink="http://www.w3.org/1999/xlink">
    <!-- Generator: Sketch 52.6 (67491) - http://www.bohemiancoding.com/sketch -->
    <title>code-logo</title>
    <desc>Created with Sketch.</desc>
    <g id="Page-1" stroke="none" stroke-width="1" fill="none" fill-rule="evenodd">
        <g id="Listing-page" transform="translate(-79.000000, -15.000000)" fill-rule="nonzero">
            <g id="Main-Header" transform="translate(1.000000, 0.000000)">
                <g id="Group-5" transform="translate(78.000000, 13.000000)">
                    <g id="code-logo" transform="translate(0.000000, 2.000000)">
                        <polygon id="Path_1" fill="#007AFF" points="1.35238615 21.0833333 0 18.9897704 8.66105507 13.9596907 0 8.80189624 1.35238615 6.70833333 12.4583333 13.4742642 12.4583333 14.6489447"></polygon>
                        <path d="M16.2916667,0.326082328 L19.4738776,0.326082328 L19.4738776,6.49646533 C20.034993,6.00196425 20.6728064,5.59534508 21.3641537,5.29137547 C21.9700766,5.02944117 22.6259622,4.89260045 23.2898093,4.88961627 C24.501256,4.86660492 25.6660619,5.34045333 26.4953474,6.19364403 C27.2390945,6.94647318 27.610968,8.05249999 27.610968,9.51172445 L27.610968,17.8822084 L24.4522785,17.8822084 L24.4522785,12.32892 C24.4522785,10.8621861 24.3818435,9.86873944 24.2409735,9.34858017 C24.1413272,8.89369167 23.8871441,8.48400561 23.5188041,8.18460492 C23.1557483,7.92126911 22.7104056,7.7856757 22.2566113,7.80030535 C21.6328924,7.79039147 21.0307604,8.02075599 20.5832776,8.44049174 C20.0891193,8.91745097 19.7520931,9.52492481 19.6146181,10.1864546 C19.5206615,10.5668117 19.4736832,11.4360384 19.4736832,12.7941347 L19.4736832,17.8822084 L16.2916667,17.8822084 L16.2916667,0.326082328 Z M39.1790921,5.21571708 L42.3729667,5.21571708 L42.3729667,17.8822084 L39.1790921,17.8822084 L39.1790921,16.5434491 C38.6371397,17.0768101 37.997891,17.5089652 37.2934815,17.8181898 C36.6451766,18.0816902 35.9479295,18.2143852 35.2445808,18.2081215 C33.5928896,18.2081215 32.1642965,17.5736298 30.9588017,16.3046465 C29.7533068,15.0356631 29.150689,13.4582263 29.1509481,11.5723361 C29.1509481,9.61648222 29.7341267,8.01376339 30.9004838,6.76417964 C32.0668409,5.51459588 33.4839,4.8901169 35.1516611,4.8907427 C35.8953503,4.88566699 36.6317902,5.03209635 37.3129208,5.32047485 C38.0166836,5.62896523 38.6507688,6.06809107 39.1790921,6.61286286 L39.1790921,5.21552934 L39.1790921,5.21571708 Z M35.8090977,7.82339712 C34.8648718,7.80240282 33.9588484,8.18343737 33.3315608,8.86534271 C32.6741242,9.56022342 32.3453411,10.4509148 32.3452115,11.5374169 C32.3452115,12.6318039 32.6798912,13.5320699 33.3492505,14.2382149 C33.9721798,14.9246379 34.8759733,15.3120156 35.8209556,15.2976201 C36.7757116,15.3204396 37.6932873,14.9399503 38.3336776,14.2556746 C38.9991492,13.5610442 39.3318201,12.6510783 39.3316905,11.5257771 C39.3316905,10.4243812 38.9990196,9.53181241 38.3336776,8.84807082 C37.6841388,8.17145566 36.7641079,7.79810299 35.8090977,7.82358486 L35.8090977,7.82339712 Z M57.1468234,7.77702585 L54.4813086,9.23218265 C54.0692009,8.7758855 53.5634709,8.40720761 52.9961472,8.14949793 C52.4497777,7.93730818 51.8645191,7.83435464 51.2757705,7.84686436 C50.0783105,7.84686436 49.1095861,8.20193939 48.3695974,8.91208945 C47.624575,9.63466205 47.2229137,10.6230969 47.2601974,11.6421746 C47.2601974,12.7209169 47.6165842,13.6017833 48.329358,14.2847739 C49.0421318,14.9677646 49.9770966,15.3092599 51.1342525,15.3092599 C52.5666686,15.3092599 53.6820948,14.8242076 54.480531,13.8541031 L57.005111,15.5655222 C55.6352893,17.3272551 53.7017933,18.2081215 51.2046227,18.2081215 C48.9579597,18.2081215 47.1986396,17.5484103 45.9266624,16.2289881 C44.6860261,14.9859847 44.0007427,13.3219876 44.0185022,11.5956156 C44.008302,10.4064964 44.3286536,9.23651446 44.9461449,8.20769669 C45.5591379,7.18062713 46.4555885,6.33826484 47.5354576,5.77461294 C48.6751881,5.17692631 49.9548778,4.87223915 51.2516658,4.88980401 C52.4365551,4.87126245 53.6086111,5.12885623 54.6685089,5.64075578 C55.6709913,6.13501333 56.5243727,6.87084625 57.1460458,7.77702585 L57.1468234,7.77702585 Z M59.086864,0.326082328 L62.2924021,0.326082328 L62.2924021,10.4430924 L67.0126493,5.21571708 L71.0284168,5.21571708 L65.5333197,11.2926066 L71.6979058,17.8822084 L67.7173234,17.8822084 L62.2924021,12.049566 L62.2924021,17.8822084 L59.086864,17.8822084 L59.086864,0.326082328 Z M73.8163991,5.21571708 L76.5639477,5.21571708 L76.5639477,6.8114896 C76.8152655,6.2378668 77.2255858,5.74233029 77.7497441,5.37942456 C78.2248556,5.05923264 78.7908549,4.88874089 79.3702029,4.89130591 C79.8246144,4.90112533 80.2704615,5.01269153 80.672635,5.21721898 L79.6757884,7.95087118 C79.3925273,7.7909831 79.0753022,7.69545264 78.7481457,7.67151712 C78.2550359,7.67151712 77.8381928,7.97421327 77.4976165,8.57960556 C77.1570402,9.18499785 76.9868169,10.3724403 76.9869465,12.141933 L76.9986101,12.7590277 L76.9986101,17.8822084 L73.8165935,17.8822084 L73.8163991,5.21571708 Z M83.8140234,14.5650667 C84.3056422,14.5584803 84.7777743,14.7504636 85.1164555,15.0946754 C85.471368,15.4337289 85.667193,15.8982556 85.6584228,16.3803049 C85.6671564,16.8639688 85.4722794,17.3303501 85.1183995,17.6726929 C84.7773152,18.0147973 84.3067456,18.2080938 83.8149954,18.2080938 C83.3232452,18.2080938 82.8526756,18.0147973 82.5115913,17.6726929 C82.1574265,17.3304751 81.9622623,16.8640783 81.9707904,16.3803049 C81.961295,15.8982725 82.1564172,15.4334751 82.5108138,15.0939245 C82.8497394,14.7494903 83.3222673,14.5574893 83.8142178,14.5643157 L83.8140234,14.5650667 Z M89.8547813,0.000169257825 C90.4051232,-0.00537309012 90.9321049,0.214644926 91.3049519,0.605624127 C91.7025567,0.996119586 91.920484,1.52485778 91.9095137,2.07242068 C91.9199452,2.61364801 91.7041159,3.13610264 91.3107837,3.52175761 C90.9427137,3.90857561 90.4220494,4.12649559 89.8781084,4.1213926 C89.322933,4.12815415 88.7911403,3.90585014 88.4162742,3.51030559 C88.0175084,3.11335872 87.799804,2.5788061 87.8117124,2.02586167 C87.8021627,1.48993863 88.0182263,0.973217273 88.4104424,0.593984374 C88.7839663,0.208647652 89.3082795,-0.0069147249 89.8547813,0.000169257825 Z M88.2461804,5.21571708 L91.4633821,5.21571708 L91.4633821,17.8822084 L88.2461804,17.8822084 L88.2461804,5.21571708 Z M100.558052,4.8907427 C102.995437,4.90013045 105.240612,6.17050921 106.440768,8.21933644 C107.032304,9.23118698 107.339942,10.3746994 107.333226,11.5366659 C107.338973,12.7104534 107.029543,13.8656325 106.435131,14.8894778 C105.264685,16.9567954 103.009465,18.2325491 100.56991,18.2073705 C98.7929757,18.2301104 97.0889744,17.5259746 95.8790157,16.2689763 C94.5996793,15.0169083 93.8986176,13.3186355 93.9350872,11.5599454 C93.8905852,9.68122772 94.6919399,7.87621124 96.1317264,6.6121119 C97.3175248,5.50137752 98.9063306,4.8829219 100.558246,4.88905305 L100.558052,4.8907427 Z M100.605095,7.88272231 C99.6616917,7.86173647 98.7554126,8.23773571 98.121726,8.91302814 C97.4607903,9.60002386 97.1303225,10.4790129 97.1303225,11.5499953 C97.1303225,12.652017 97.4570969,13.5445232 98.1106456,14.2275139 C98.7442933,14.9023092 99.651303,15.2764566 100.594209,15.2519998 C101.54431,15.2733654 102.457124,14.8948965 103.095462,14.2149354 C103.760674,13.5240598 104.093345,12.6354335 104.093474,11.5490566 C104.093604,10.4626797 103.766765,9.57981074 103.112957,8.9004497 C102.469853,8.22538051 101.554674,7.85361571 100.605289,7.88178362 L100.605095,7.88272231 Z" id="Path_2" fill="#494949"></path>
                        <polygon id="Path_3" fill="#007AFF" points="16.2916667 20.125 27.7916667 20.125 27.7916667 23 16.2916667 23"></polygon>
                    </g>
                </g>
            </g>
        </g>
    </g>
</svg>