<?xml version="1.0" encoding="utf-8"?>
<!-- Generator: Adobe Illustrator 20.1.0, SVG Export Plug-In . SVG Version: 6.00 Build 0)  -->
<svg version="1.1" id="Layer_1" xmlns="http://www.w3.org/2000/svg" xmlns:xlink="http://www.w3.org/1999/xlink" x="0px" y="0px"
	 viewBox="0 0 895.6 304.6" style="enable-background:new 0 0 895.6 304.6;" xml:space="preserve">
<style type="text/css">
	.st0{fill:#0ABE51;}
	.st1{fill:#FFFFFF;}
	.st2{fill:#333333;}
</style>
<title>Flock Logo</title>
<g id="Layer_2">
	<g id="Layer_1-2">
		<path class="st0" d="M310.4,275.1c-9.8-7.2-22-17-23.2-34.2c-0.6-9.2,2-19.5,4.6-27c1.6-3.5,3-7.1,4.3-10.7v-0.1l0,0
			c28.1-79.3-13.4-166.4-92.8-194.5S37,22.1,8.9,101.4s13.4,166.4,92.8,194.5c43.8,15.5,92.3,10.2,131.7-14.5c4-1.9,7.4-3,9.3-2.2
			c20.2,8.5,42.3,11.1,63.9,7.3C310.4,285.9,320.1,282.3,310.4,275.1z"/>
		<path class="st1" d="M107.6,83.1H210c9.5,0,17.2,7.7,17.2,17.2v0.7c0,9.5-7.7,17.2-17.2,17.2H107.6c-9.5,0-17.2-7.7-17.2-17.2
			v-0.7C90.4,90.8,98.1,83.1,107.6,83.1z"/>
		<path class="st1" d="M107.6,135.2h64.7c9.5,0,17.2,7.7,17.2,17.2v0.8c0,9.5-7.7,17.2-17.2,17.2h-64.7c-9.5,0-17.2-7.7-17.2-17.2
			v-0.8C90.4,142.9,98.1,135.2,107.6,135.2z"/>
		<path class="st1" d="M107.6,186.4h11.7c9.5,0,17.2,7.7,17.2,17.2v0.7c0,9.5-7.7,17.2-17.2,17.2h-11.7c-9.5,0-17.2-7.7-17.2-17.2
			v-0.7C90.4,194.1,98.1,186.4,107.6,186.4z"/>
		<path class="st2" d="M441.1,86.6c-3.7,0-7-2.5-12.2-2.5c-10.2,0-16.5,7-16.5,19.7v7.5h14.5c6.5,0,11.8,5.3,11.8,11.8
			s-5.3,11.8-11.8,11.8h-14.5V220c0,7.4-6,13.4-13.5,13.4c-7.4,0-13.4-6-13.4-13.4v-85.2h-10c-6.5,0-11.8-5.3-11.8-11.8
			s5.3-11.8,11.8-11.8h10v-7.5c0-25.4,15.2-40.9,38.4-40.9c13.7,0,26.7,5,26.7,13.5c0.2,5.4-4,10-9.3,10.2
			C441.2,86.6,441.2,86.6,441.1,86.6z"/>
		<path class="st2" d="M486.9,233.2c-7.2,0-13.2-5.8-13.2-13c0-0.1,0-0.1,0-0.2V76.9c0-7,5.7-13,13.7-13c7.1,0.1,12.9,5.9,13,13V220
			C500.3,227.3,494.3,233.2,486.9,233.2z"/>
		<path class="st2" d="M586.9,234.7c-38.6,0-62.1-28.7-62.1-63.3c0-34.4,23.4-63.1,62.1-63.1s62,28.7,62,63.1
			C648.9,206,625.5,234.7,586.9,234.7z M586.9,132c-22.2,0-34.4,18.4-34.4,39.4c0,21.2,12.2,39.6,34.4,39.6
			c21.9,0,34.1-18.4,34.1-39.6C621,150.5,608.8,132,586.9,132z"/>
		<path class="st2" d="M767.5,221.2c-8.7,8-21.2,13.5-38.6,13.5c-36.6,0-62.3-26.7-62.3-63.3c0-36.4,25.7-63.1,62.3-63.1
			c18.4,0,33.9,6.5,40.6,16.2c1.2,1.6,1.8,3.5,1.7,5.5c0,7-6.2,11.5-12.5,11.5c-2.8,0.1-5.5-0.8-7.7-2.5c-6-4.6-13.3-7.1-20.9-7
			c-21.7,0-36.1,16.2-36.1,39.4s14.5,39.6,36.1,39.6c7.6,0,15-2.5,20.9-7.2c2.2-1.6,4.9-2.5,7.7-2.5c6.5,0,12.7,4.7,12.7,11.7
			C771.5,216.2,770.1,219.3,767.5,221.2z"/>
		<path class="st2" d="M882.5,233.2c-4.4,0.1-8.5-1.9-11-5.5l-33.4-45.4l-16.5,17.2V220c-0.1,7.4-6.1,13.3-13.5,13.2
			c-7.2,0-13.2-5.8-13.2-13c0-0.1,0-0.1,0-0.2V76.9c0-7,5.7-13,13.7-13c7.1,0.1,12.9,5.9,13,13v92l50.1-55.3c2.2-2.5,5.4-3.9,8.7-4
			c6.9,0.2,12.5,5.8,12.7,12.7c-0.1,2.9-1.2,5.7-3,8l-32.9,35.6l35.9,46.4c1.5,2.2,2.4,4.8,2.5,7.5
			C895.7,226.2,890.4,233.2,882.5,233.2z"/>
	</g>
</g>
</svg>
